Later, Live With Jools Holland (BBC2, Kate Nash, Jerry Dammers,)s36eo2[DTV-RIP-Divx]

First Shown On BBC 2 On Tuesday 20th April 2010


Description:

Episode 2 of Later Live featured Seattle-based rockers Band of Horses visit the studio to play tracks from their new album Infinite Arms, and indie pop star Kate Nash performs songs from My Best Friend Is You, the follow-up to her 2007 release Made of Bricks. Also appearing are ska revivalist Jerry Dammers and his Spatial AKA Orchestra, Pennsylvanian jazz singer Melody Gardot and former Cream star Jack Bruce. Plus, rapper Plan B makes his debut appearance on the show with numbers from his second album The Defamation of Strickland Banks. An extended edition can be seen on Friday at 11.50pm


General
Complete name : Later, Live With Jools Holland.s36eo2
Format : AVI
Format/Info : Audio Video Interleave
File size : 292 MiB
Duration : 30mn 23s
Overall bit rate : 1 342 Kbps

Video
ID : 0
Format : MPEG-4 Visual
Format settings, BVOP : Yes
Format settings, QPel : No
Format settings, GMC : No warppoints
Format settings, Matrix : Default (H.263)
Muxing mode : Packed bitstream
Codec ID : DX50
Codec ID/Hint : DivX 5
Duration : 30mn 23s
Bit rate : 1 141 Kbps
Width : 688 pixels
Height : 384 pixels
Display aspect ratio : 16:9
Frame rate : 25.000 fps
Resolution : 8 bits
Colorimetry : 4:2:0
Scan type : Progressive
Bits/(Pixel*Frame) : 0.173
Stream size : 248 MiB (85%)
Title : Video
Writing library : DivX 6.8.2 (UTC 2008-05-17)

Audio
ID : 1
Format : AC-3
Format/Info : Audio Coding 3
Codec ID : 2000
Duration : 30mn 23s
Bit rate mode : Constant
Bit rate : 192 Kbps
Channel(s) : 2 channels
Channel positions : Front: L R
Sampling rate : 48.0 KHz
Stream size : 41.7 MiB (14%)
Alignment : Split accross interleaves
Interleave, duration : 40 ms (1.00 video frame)
Interleave, preload duration : 500 ms